<?xml version="1.0" ?><svg fill="none" height="24" viewBox="0 0 24 24" width="24" xmlns="http://www.w3.org/2000/svg"><path d="M7.71439 7.71429L16.2858 16.2858" stroke="#fff" stroke-linecap="round"/><path d="M16.2856 7.71429L7.71415 16.2858" stroke="#fff" stroke-linecap="round"/><path d="M2.32601 3.96016C2.41491 3.13049 3.06555 2.51236 3.89535 2.42468C5.5427 2.25061 8.51889 2 12 2C15.4811 2 18.4573 2.25061 20.1047 2.42468C20.9344 2.51236 21.5851 3.13049 21.674 3.96016C21.8215 5.33707 22 7.85864 22 12C22 16.1414 21.8215 18.663 21.674 20.0399C21.5851 20.8695 20.9344 21.4877 20.1046 21.5754C18.4573 21.7494 15.4811 22 12 22C8.5189 22 5.54272 21.7494 3.89537 21.5754C3.06556 21.4877 2.41491 20.8695 2.32601 20.0399C2.17848 18.6629 2 16.1414 2 12C2 7.85864 2.17848 5.33707 2.32601 3.96016Z" stroke="#fff"/></svg>